<svg width="100" height="114" viewBox="0 0 100 114" fill="none" xmlns="http://www.w3.org/2000/svg">
<path d="M50 15.6935L61.3257 52.3442L61.4346 52.6966H61.8034H98.5219L68.7948 75.4061L68.5176 75.6178L68.6206 75.951L79.9621 112.653L50.3035 89.9959L50 89.764L49.6965 89.9959L20.0379 112.653L31.3794 75.951L31.4824 75.6178L31.2052 75.4061L1.47815 52.6966H38.1966H38.5654L38.6743 52.3442L50 15.6935Z" fill="#EFD130" stroke="black"/>
<path d="M31.5938 97C29.9688 97 29.5469 95.9688 30.3281 93.9062L53.6719 32.6406C54.3906 30.7344 55.4219 29.7812 56.7656 29.7812H63.3281C64.6719 29.7812 65.7031 30.7344 66.4219 32.6406L89.7656 93.9062C90.5469 95.9688 90.125 97 88.5 97H83.7188C82.0625 97 80.9375 96.2344 80.3438 94.7031L74.4844 79.1875H45.6094L39.75 94.7031C39.1562 96.2344 38.0312 97 36.375 97H31.5938ZM48.5625 71.5H71.5312L64.3594 52.75C63.7031 51 63.0469 49.0625 62.3906 46.9375C61.7656 44.8125 61.0156 41.7969 60.1406 37.8906H59.9531C59.0781 41.7969 58.3125 44.8125 57.6562 46.9375C57.0312 49.0625 56.3906 51 55.7344 52.75L48.5625 71.5Z" fill="white"/>
<path d="M30.3281 93.9062L29.3937 93.5502L29.393 93.552L30.3281 93.9062ZM53.6719 32.6406L54.6063 32.9967L54.6076 32.9934L53.6719 32.6406ZM66.4219 32.6406L65.4862 32.9934L65.4874 32.9967L66.4219 32.6406ZM89.7656 93.9062L90.7008 93.552L90.7001 93.5502L89.7656 93.9062ZM80.3438 94.7031L79.4082 95.0564L79.4114 95.0647L80.3438 94.7031ZM74.4844 79.1875L75.4199 78.8342L75.1757 78.1875H74.4844V79.1875ZM45.6094 79.1875V78.1875H44.9181L44.6739 78.8342L45.6094 79.1875ZM39.75 94.7031L40.6824 95.0647L40.6855 95.0564L39.75 94.7031ZM48.5625 71.5L47.6285 71.1427L47.1093 72.5H48.5625V71.5ZM71.5312 71.5V72.5H72.9844L72.4653 71.1427L71.5312 71.5ZM64.3594 52.75L63.423 53.1011L63.4254 53.1073L64.3594 52.75ZM62.3906 46.9375L61.4312 47.2197L61.4352 47.2326L62.3906 46.9375ZM60.1406 37.8906L61.1164 37.672L60.9414 36.8906H60.1406V37.8906ZM59.9531 37.8906V36.8906H59.1523L58.9773 37.672L59.9531 37.8906ZM57.6562 46.9375L56.7007 46.6424L56.6969 46.6553L57.6562 46.9375ZM55.7344 52.75L56.6684 53.1073L56.6707 53.1011L55.7344 52.75ZM31.5938 96C31.2827 96 31.1209 95.949 31.0505 95.9136C31.0033 95.8898 30.9955 95.8756 30.9841 95.8479C30.9273 95.709 30.8865 95.2553 31.2633 94.2605L29.393 93.552C28.9885 94.6197 28.768 95.7129 29.133 96.6052C29.5662 97.6641 30.5932 98 31.5938 98V96ZM31.2626 94.2623L54.6063 32.9967L52.7374 32.2846L29.3937 93.5502L31.2626 94.2623ZM54.6076 32.9934C55.268 31.2418 56.0425 30.7812 56.7656 30.7812V28.7812C54.8012 28.7812 53.5132 30.227 52.7362 32.2878L54.6076 32.9934ZM56.7656 30.7812H63.3281V28.7812H56.7656V30.7812ZM63.3281 30.7812C64.0512 30.7812 64.8257 31.2418 65.4862 32.9934L67.3576 32.2878C66.5805 30.227 65.2925 28.7812 63.3281 28.7812V30.7812ZM65.4874 32.9967L88.8312 94.2623L90.7001 93.5502L67.3563 32.2846L65.4874 32.9967ZM88.8305 94.2605C89.2073 95.2553 89.1664 95.709 89.1096 95.8479C89.0983 95.8756 89.0904 95.8898 89.0432 95.9136C88.9728 95.949 88.8111 96 88.5 96V98C89.5005 98 90.5275 97.6641 90.9607 96.6052C91.3257 95.7129 91.1052 94.6197 90.7008 93.552L88.8305 94.2605ZM88.5 96H83.7188V98H88.5V96ZM83.7188 96C83.0472 96 82.559 95.8465 82.1954 95.5991C81.8326 95.3521 81.5151 94.958 81.2761 94.3416L79.4114 95.0647C79.7661 95.9795 80.3081 96.7338 81.0702 97.2525C81.8317 97.7707 82.7341 98 83.7188 98V96ZM81.2793 94.3498L75.4199 78.8342L73.5489 79.5408L79.4082 95.0564L81.2793 94.3498ZM74.4844 78.1875H45.6094V80.1875H74.4844V78.1875ZM44.6739 78.8342L38.8145 94.3498L40.6855 95.0564L46.5449 79.5408L44.6739 78.8342ZM38.8176 94.3416C38.5786 94.958 38.2612 95.3521 37.8983 95.5991C37.5348 95.8465 37.0466 96 36.375 96V98C37.3597 98 38.2621 97.7707 39.0236 97.2525C39.7857 96.7338 40.3276 95.9795 40.6824 95.0647L38.8176 94.3416ZM36.375 96H31.5938V98H36.375V96ZM48.5625 72.5H71.5312V70.5H48.5625V72.5ZM72.4653 71.1427L65.2934 52.3927L63.4254 53.1073L70.5972 71.8573L72.4653 71.1427ZM65.2957 52.3989C64.6475 50.6704 63.9976 48.752 63.3461 46.6424L61.4352 47.2326C62.0962 49.373 62.7587 51.3296 63.423 53.1011L65.2957 52.3989ZM63.35 46.6553C62.7342 44.5617 61.9898 41.571 61.1164 37.672L59.1648 38.1092C60.0414 42.0228 60.797 45.0633 61.4313 47.2197L63.35 46.6553ZM60.1406 36.8906H59.9531V38.8906H60.1406V36.8906ZM58.9773 37.672C58.1043 41.5694 57.3454 44.555 56.7008 46.6424L58.6117 47.2326C59.2796 45.07 60.0519 42.0244 60.9289 38.1092L58.9773 37.672ZM56.6969 46.6553C56.0775 48.7612 55.4444 50.6753 54.798 52.3989L56.6707 53.1011C57.3368 51.3247 57.985 49.3638 58.6156 47.2197L56.6969 46.6553ZM54.8004 52.3927L47.6285 71.1427L49.4965 71.8573L56.6684 53.1073L54.8004 52.3927Z" fill="black"/>
</svg>
